<svg xmlns="http://www.w3.org/2000/svg" viewBox="0 0 249.805 135"><title>Los Angeles Dodgers wordmark light logo</title><g fill="#FFF"><path d="M.238 79.896C-.668 88.09.88 93.554 7.225 96.218c4.653 1.952 10.054-2.203 11.606-4.528 2.55-3.812 2.89-7.885 2.89-7.885s-8.883 8.548-13.993.752c-2.954-4.513-1.372-17.913 16.01-27.35 17.39-9.436 26.014-1.735 26.014-1.735 10.455 5.91 10.917 23.425 7.833 37.028-2.307 10.14-7.107 20.835-18.01 22.816-4.102.748-5.67.3-9.4.15.82-1.866 3.876-8.688 4.76-19.603 2.592-31.992 6.073-35.07 9.225-39.833-23.64 12.006-16.814 52.91-21.438 59.63-17.34 2.556-21.29 16.717-17.85 18.93 2.61 1.67 14.38-1.522 22.398-14.464 5.816-.104 24.365 4.987 35.68-15.62 7.665-13.968 10.08-38.298-2.2-50.338C43.04 36.81 3.036 54.552.24 79.896zm10.59 47.84c-.81-2.066 4.785-6.966 9.8-7.18-1.904 3.362-8.99 9.248-9.8 7.18zM240.5 34.726c-2.564-7.305-12.28-5.86-14.75-3.54 0-9.637-4.863-12.203-9.897-18.125-1.116-4.148 2.14-5.51 2.593-9.06.918-7.194-10.37-5.087-7.178 9.61-1.345 6.858-8.613 27.86-12.4 28.394-2.18.314-2.295-3.213-1.174-7.392 1.113-4.196 7.153-11.762 3.435-15.586-2.16-2.226-6.207 1.113-9.813-.898 0 0 .117-3.03-.825-4.163-.935-1.122-2.58-.703-3.574.06-2.722 2.105-2.864 7.868-1.384 10.812-1.11 7.17-2.014 10.062-5.513 19.73-3.59 9.936-12.123 14.678-14.045 8.62C183 36.802 179.237 30.5 176.517 28.268c-4.38-3.595-17.976 2.915-18.648 23.578-.015.846.11 1.943.285 2.98-1.34 1.58-3.71 4.484-6.682 8.604 1.396-9.17 3.355-22.43 3.985-27.345 0 0-3.394 2.194-7.154 2.65l-.503 3.41c-3.64-5.477-20.57-.342-19.975 26.435-.842 8.218-5.264 9.155-5.376 7.172-.585-9.768 5.485-38.546 7.533-48.98 0 0-4.002 2.24-7.09 2.286 0 0-5.227 26.5-5.344 26.53-2.728-2.16-4.562-1.867-6.666-1.38-6.382 1.466-11.343 10.427-11.64 16.138-1.12 1.116-2.428 2.144-3.736 2.8-.8-3.414-2.366-6.545-5.854-7.597C78.09 62.026 68.66 79.14 71.71 95.262c0 0 1.116 4.49 5.457 7.334 8.122 4.05 18.735-6.93 18.853-24.06 1.57-1.022 2.99-2.92 2.99-3.146-.695 5.2.872 14.93 6.75 15.776 6.26.894 9.782-6.634 10.76-9.762.76 1.91 2.686 3.573 5.037 3.47 5.356-.222 7.04-7.083 8.047-9.997 4.766 7.566 12.456.59 14.136-3.882l-.564 3.707c-4.343 5.22-12.454 18.22-12.454 18.22-15.027 5.444-44.29 16.256-56.37 34.336 9.816-1.94 18.234.564 18.234.564 1.96-5.31 13.91-15.96 31.438-21.812-4.307 8.723-3.462 21.544 3.9 21.403 12.72-.252 16.916-22.123 18.686-30.423 11.3-4.866 31.492-12.64 52.593-21.706C218.8 66.864 246.85 52.79 240.5 34.726zM90.28 75.158s-1.415.382-2.777.224c-2.207-.255-3.8-1.306-3.994-2.22-1.043-4.93 6.527-4.234 6.77 1.996zm-8.917 19.58c-4.38-.85-4.214-12.536-1.194-17.64 1.96 3.573 7.116 3.952 10.268 3.474.24 5.078-3.704 15.213-9.075 14.165zm34.922-31.063c-.073.993-1.184 9.66-1.418 10.608-1.106 4.437-3.333 7.573-6.436 7.45-5.336-.19-2.93-22.77 4.68-22.01 1.507.15 3.378 1.163 3.175 3.952zm15.034 52.63c-3.85.682-1.87-9.083 1.122-13.748 3.91-1.49 7.21-3.066 7.21-3.066-2.03 9.62-3.724 16-8.333 16.815zm9.8-27.157s-2.022.858-2.965 1.183c1.316-1.934 3.694-6.448 4.21-7.3-.206 1.514-1.246 6.118-1.246 6.118zm31.183-55.677c4.338 2.224-3.218 11.327-6.663 15.068.506-8.423 4.72-16.065 6.663-15.067zm-34.026 35.667c-5.886 1.104-3.97-21.78 4.72-22.804 1.654-.204 3.39 1.84 3.05 5.165-.197 1.882-.68 5.902-1.723 9.177-1.103 3.497-2.963 7.876-6.047 8.462zm95.06-22.157c-7.28 10.997-27.206 18.696-85.216 39.79.52-3.66 1.422-10.313 2.164-14.737 1.3-2.28 2.83-4.785 4.49-7.198l.462-.656c1.31-1.866 2.705-3.65 4.13-5.218 1.358 2.22 3.43 5.25 7.713 5.134 14.357-.368 20.653-27.316 22.895-37.83 1.08.228 2.5.426 3.528.384-1.045 3.41-9.067 21.62 1.58 24.712 10.605 3.097 17.153-26.2 19.048-32.587 6.434 7.46 4.815 15.322 1.534 16.968-1.677.83-3.596-1.72-5.46.055-2.792 2.645-.937 7.06 2.91 7.726 5.477.923 9.115-2.85 12.774-6.665 1.138-1.183 5.415-3.783 8.064-1.937 3.983 2.76 1.115 9.43-.616 12.057z"/></g><path d="M246.375 47.378h-.757v2.06h-.513v-2.06h-.757v-.448h2.027v.448zm3.43 2.06h-.51v-1.996h-.014l-.724 1.996h-.495l-.7-1.996h-.012v1.996h-.51V46.93h.886l.584 1.638h.012l.608-1.638h.88v2.508z" fill="#FFF"/></svg>